<svg xmlns="http://www.w3.org/2000/svg" viewBox="0 0 625.3 378.07"><defs><style>.cls-1{fill:#530e41;}</style></defs><g id="Layer_2" data-name="Layer 2"><g id="Layer_1-2" data-name="Layer 1"><path class="cls-1" d="M161.89,80.52l-10.21-3.87a3.09,3.09,0,0,0-3.88,1.56l-2.48,5.2a3.09,3.09,0,0,0,1.53,4.14l9.9,4.42a3.09,3.09,0,0,0,4-1.48l2.79-5.74A3.09,3.09,0,0,0,161.89,80.52Z"/><path class="cls-1" d="M180.83,86.65l-10.94-3.26a3.09,3.09,0,0,0-3.79,1.94l-1.77,5.08a3.07,3.07,0,0,0,1.75,3.87l10.28,4.16a3.09,3.09,0,0,0,4-1.7l2.44-6A3.08,3.08,0,0,0,180.83,86.65Z"/><path class="cls-1" d="M200.48,90.56l-11.87-1.83a3.07,3.07,0,0,0-3.47,2.34l-1.51,6.49a3.08,3.08,0,0,0,2.33,3.71l11.57,2.56a3.09,3.09,0,0,0,3.66-2.26L203,94.36A3.07,3.07,0,0,0,200.48,90.56Z"/><path class="cls-1" d="M222.19,103.66l.73-7.48a3.07,3.07,0,0,0-2.69-3.36L209,91.45a3.08,3.08,0,0,0-3.44,2.75l-.74,7.31a3.08,3.08,0,0,0,2.65,3.37l11.25,1.53A3.1,3.1,0,0,0,222.19,103.66Z"/><path class="cls-1" d="M520.55,87.91a1.28,1.28,0,0,0,1-1.49l-.69-3.76a1.27,1.27,0,0,0-1.48-1l-1.88.35c-2.23.41-4.46.8-6.68,1.19V71.45a1.27,1.27,0,0,0-1.28-1.27h-3.82a1.27,1.27,0,0,0-1.27,1.27V84.28q-4.22.72-8.42,1.39v-11a1.27,1.27,0,0,0-1.27-1.27H491a1.27,1.27,0,0,0-1.27,1.27v12c-2.81.43-5.61.84-8.42,1.25V78.5A1.27,1.27,0,0,0,480,77.23h-3.82a1.27,1.27,0,0,0-1.28,1.27V88.83c-2.81.38-5.61.76-8.41,1.12v-9a1.27,1.27,0,0,0-1.28-1.27h-3.82a1.27,1.27,0,0,0-1.27,1.27v9.84c-2.81.34-5.62.68-8.42,1V81.93a1.27,1.27,0,0,0-1.27-1.27h-3.83a1.27,1.27,0,0,0-1.27,1.27V92.48q-4.21.47-8.42.88V83.45a1.27,1.27,0,0,0-1.27-1.28h-3.82a1.28,1.28,0,0,0-1.28,1.28V94c-2.81.27-5.62.52-8.41.77V85a1.28,1.28,0,0,0-1.28-1.28H417A1.27,1.27,0,0,0,415.75,85V95.3c-2.82.24-5.62.45-8.42.66V84.18a1.27,1.27,0,0,0-1.27-1.28h-3.83A1.27,1.27,0,0,0,401,84.18V96.42c-2.81.19-5.62.38-8.42.55V82.39a1.27,1.27,0,0,0-1.27-1.27h-3.82a1.27,1.27,0,0,0-1.28,1.27v15l-8.41.45V81.93a1.27,1.27,0,0,0-1.28-1.27h-3.82a1.27,1.27,0,0,0-1.27,1.27V98.12l-8.42.36V78.66a1.27,1.27,0,0,0-1.27-1.27h-3.83a1.27,1.27,0,0,0-1.27,1.27v20l-8.42.27V78.1a1.27,1.27,0,0,0-1.27-1.28h-3.82a1.28,1.28,0,0,0-1.28,1.28V99.15l-8.41.18V76.88a1.27,1.27,0,0,0-1.28-1.27H328.3A1.27,1.27,0,0,0,327,76.88V99.44l-8.42.1V76a1.27,1.27,0,0,0-1.28-1.27h-3.82A1.27,1.27,0,0,0,312.24,76V99.58l-8.42,0V76a1.27,1.27,0,0,0-1.27-1.27h-3.82A1.27,1.27,0,0,0,297.45,76V99.6l-8.42,0V75.18a1.27,1.27,0,0,0-1.27-1.27h-3.82a1.27,1.27,0,0,0-1.27,1.27V99.5l-8.42-.1V76.88A1.27,1.27,0,0,0,273,75.61h-3.82a1.27,1.27,0,0,0-1.27,1.27V99.3l-8.42-.16V81.26A1.27,1.27,0,0,0,258.19,80h-3.82a1.28,1.28,0,0,0-1.28,1.28V99l-9.42-.24.24-2.15a3.08,3.08,0,0,0-3.06-3.43h-12a3.08,3.08,0,0,0-3.08,3.08V104a3.09,3.09,0,0,0,2.84,3.08l11,.88a3.09,3.09,0,0,0,3.31-2.73v-.11c3.32.09,6.65.18,10,.25v44.25a1.27,1.27,0,0,0,1.27,1.27h2.55a1.27,1.27,0,0,0,1.27-1.27V105.48l6.84.13V156a1.28,1.28,0,0,0,1.28,1.28h2.54A1.28,1.28,0,0,0,270,156V105.7l6.84.1v56.25a1.27,1.27,0,0,0,1.27,1.27h2.55a1.27,1.27,0,0,0,1.27-1.27V105.86l6.85.07v66.35a1.27,1.27,0,0,0,1.27,1.28h2.55a1.27,1.27,0,0,0,1.27-1.28V106l6.84,0v72.67a1.27,1.27,0,0,0,1.28,1.27h2.54a1.27,1.27,0,0,0,1.28-1.27V106l6.84,0v72.7a1.27,1.27,0,0,0,1.27,1.27h2.55a1.27,1.27,0,0,0,1.28-1.27V105.91l6.84-.08v72.82a1.27,1.27,0,0,0,1.27,1.27h2.55a1.27,1.27,0,0,0,1.27-1.27V105.76l6.84-.13v68a1.27,1.27,0,0,0,1.28,1.27h2.55a1.27,1.27,0,0,0,1.27-1.27V105.52c2.27,0,4.56-.12,6.84-.19V171a1.27,1.27,0,0,0,1.27,1.27h2.55a1.27,1.27,0,0,0,1.28-1.27V105.19c2.26-.07,4.56-.17,6.84-.25V167a1.27,1.27,0,0,0,1.27,1.28h2.55A1.27,1.27,0,0,0,365.5,167V104.75l6.84-.31v58.74a1.28,1.28,0,0,0,1.28,1.28h2.55a1.27,1.27,0,0,0,1.27-1.28v-59l6.84-.37V158a1.27,1.27,0,0,0,1.27,1.27h2.55a1.27,1.27,0,0,0,1.28-1.27V103.54l6.84-.42v48.14a1.27,1.27,0,0,0,1.27,1.28H400a1.27,1.27,0,0,0,1.27-1.28V102.77l6.84-.48v42.93a1.28,1.28,0,0,0,1.28,1.28H412a1.27,1.27,0,0,0,1.27-1.28V101.88A1033.17,1033.17,0,0,0,518.67,88.25Z"/><path class="cls-1" d="M525.75,87.65l6.15.24a1.76,1.76,0,0,0,1.83-1.64l.31-4.34A1.77,1.77,0,0,0,532.16,80l-6.46.41a1.78,1.78,0,0,0-1.65,1.77v3.68A1.76,1.76,0,0,0,525.75,87.65Z"/><path class="cls-1" d="M547.61,81.58h-6.79a1.77,1.77,0,0,0-1.76,1.77V86.7a1.77,1.77,0,0,0,1.63,1.76l6.4.5A1.77,1.77,0,0,0,549,87.37l.39-3.84A1.78,1.78,0,0,0,547.61,81.58Z"/><path class="cls-1" d="M563.24,87.17l-6.3-2.63a1.77,1.77,0,0,0-2.27.86c-.37.78-.81,1.73-1.18,2.53a1.77,1.77,0,0,0,.88,2.35l6,2.67a1.77,1.77,0,0,0,2.24-.71l1.52-2.52A1.78,1.78,0,0,0,563.24,87.17Z"/><path class="cls-1" d="M577.38,94.64l-5.7-3.36a1.77,1.77,0,0,0-2.4.58l-1.44,2.31a1.77,1.77,0,0,0,.54,2.43L573.7,100a1.76,1.76,0,0,0,2.36-.41l1.83-2.37A1.76,1.76,0,0,0,577.38,94.64Z"/><path class="cls-1" d="M584,100.52a1.76,1.76,0,0,0-2.49.07l-1.17,1.22a1.78,1.78,0,0,0,0,2.47l4.57,4.56a1.74,1.74,0,0,0,2.15.27l1.68-1a1.77,1.77,0,0,0,.31-2.81Z"/><path class="cls-1" d="M590.39,114.8l3.49,6a1.77,1.77,0,0,0,2.49.59l2-1.3a1.76,1.76,0,0,0,.41-2.6L594.28,112a1.78,1.78,0,0,0-2.47-.26l-1,.78A1.77,1.77,0,0,0,590.39,114.8Z"/><path class="cls-1" d="M598.72,127.36l3.13,6.21a1.78,1.78,0,0,0,2.69.58l1-.82a1.79,1.79,0,0,0,.46-2.19l-3.09-6a1.76,1.76,0,0,0-2.45-.73l-1.06.6A1.77,1.77,0,0,0,598.72,127.36Z"/><path class="cls-1" d="M604.65,140.83l1.58,7a1.77,1.77,0,0,0,2.36,1.26l1.65-.63a1.77,1.77,0,0,0,1-2.23l-2.36-6.83a1.77,1.77,0,0,0-2.43-1l-.88.42A1.77,1.77,0,0,0,604.65,140.83Z"/><path class="cls-1" d="M610.53,152.42l-.82.18a1.76,1.76,0,0,0-1.36,2l1.24,7.92a1.76,1.76,0,0,0,2.06,1.46l1.07-.19a1.78,1.78,0,0,0,1.42-2.07l-1.49-7.9A1.77,1.77,0,0,0,610.53,152.42Z"/><rect class="cls-1" x="610.25" y="168.72" width="4.78" height="10.6" rx="1.77"/><path class="cls-1" d="M612.47,184.48h-.57a1.76,1.76,0,0,0-1.76,1.65l-.43,6.59a1.77,1.77,0,0,0,1.77,1.89h.2a1.76,1.76,0,0,0,1.75-1.56l.8-6.59A1.77,1.77,0,0,0,612.47,184.48Z"/><path class="cls-1" d="M609.89,199.56a1.77,1.77,0,0,0-1.93,1.63l-.56,7.68a1,1,0,0,0,.74,1.07,1,1,0,0,0,1.31-.73l2-7.38A1.78,1.78,0,0,0,609.89,199.56Z"/><path class="cls-1" d="M497,132.43l22.4-5.77a8.89,8.89,0,0,0,6.65-8l1.19-18.05a5.69,5.69,0,0,0-6.84-5.95L479.87,103a6.06,6.06,0,0,0-4,9l8.79,15.29A11,11,0,0,0,497,132.43Z"/><path class="cls-1" d="M236,127.43a10.26,10.26,0,1,0-10.26,10.25A10.26,10.26,0,0,0,236,127.43Z"/><path class="cls-1" d="M252.22,197.19l6.89-3.49a3.68,3.68,0,0,0,1.61-4.93l-.48-1a3.7,3.7,0,0,0-3.6-2L238.36,147a3.66,3.66,0,0,0,.46-4l-.48-1a3.69,3.69,0,0,0-4.94-1.61L226.52,144a3.68,3.68,0,0,0-1.61,4.93l.48,1a3.67,3.67,0,0,0,3.93,1.93l18.2,38.6a3.67,3.67,0,0,0-.71,4.26l.48.95A3.68,3.68,0,0,0,252.22,197.19Z"/><path class="cls-1" d="M261.59,207.13a3.68,3.68,0,0,0-3.67-3.67H253.6a3.66,3.66,0,0,0-1,7.18v65.49a3.66,3.66,0,0,0,.83,7.23h4.32a3.66,3.66,0,0,0,1.21-7.11V210.64A3.67,3.67,0,0,0,261.59,207.13Z"/><path class="cls-1" d="M534.46,275.33,501,219a3.67,3.67,0,0,0-4.79-5.35l-3.74,2.16a3.67,3.67,0,0,0,3.15,6.6L529,278.63a3.66,3.66,0,0,0,4.64,5.53l3.74-2.16a3.66,3.66,0,0,0-2.93-6.67Z"/><path class="cls-1" d="M502.35,204l.17-1.06a3.69,3.69,0,0,0-1.69-3.68l10.93-53.38a3.67,3.67,0,0,0,3.08-3l.16-1.05a3.68,3.68,0,0,0-3.05-4.2l-7.62-1.2a3.69,3.69,0,0,0-4.2,3.06L500,140.5a3.67,3.67,0,0,0,1.73,3.71l-10.92,53.34a3.69,3.69,0,0,0-3.14,3l-.16,1.06a3.67,3.67,0,0,0,3,4.19l7.62,1.2A3.67,3.67,0,0,0,502.35,204Z"/><path class="cls-1" d="M114.2,90.91a10.13,10.13,0,0,0-8.7,5,12.79,12.79,0,0,0-1.42,5c-.3,2.35-.4,4.77-1.45,6.92-1.91,3.92-7,3.22-10.65,3.81a43.28,43.28,0,0,0-7.19,2.13c-7.76,2.78-15.59,5.58-23.13,8.94a82.36,82.36,0,0,0-9.53,5.43c-2,1.25-4.81,3.56-7.25,3.81-2.24.22-16,.22-19,1.68s5.26,5.7,7.16,6.26,6.71-.67,13.2-2.35,25.73-1.9,42.18-1.68,21.47-1,29.42-8.72c4.28-4.16,5.64-10.71,6.22-16.43.52-5.15,1.31-12.44-2.43-16.55A10.09,10.09,0,0,0,114.2,90.91Z"/><path class="cls-1" d="M591.21,84.13C566.4,61.06,517,62.11,509,63.27l-4.11.64c-13.63,2.17-55.09,8.75-68.72,8.75-8.37,0-33.47-3-60-6.27C352.5,63.54,325.78,60.3,306,58.6c-31.83-2.74-49.87,2.88-63,7a93.15,93.15,0,0,1-11.31,3c-10.22,1.74-21.45.09-32.32-1.51-2.3-.34-4.57-.67-6.78-1l-3.87-.51c-15.89-2.08-30.9-4-45.43-10.09a3.26,3.26,0,0,1-1.33-.79c-1.57-2.16,1.15-10,2.77-14.66a50.83,50.83,0,0,0,1.86-6c.38-1.95-.51-2.82-1.08-3.17-2.13-1.3-7.1,1.08-14.77,7.06-3.69,2.48-7.91,4.32-9.4,4.17-.18-.63-.36-1.27-.56-1.9-2-6.29-4.61-10.52-8.26-13.31l-.14-.11a1.78,1.78,0,0,0-.27-.21c-.25-.19-.52-.37-.78-.53l-.41-.27-.17-.11c-4.06-2.5-8.7-3.64-13.18-4.75-1-.26-2.05-.51-3.05-.78A46.82,46.82,0,0,1,88.9,18.4,24.87,24.87,0,0,1,82,14.54,79,79,0,0,1,73.9,7l-.52-.56-.32-.36c-.45-.48-.9-1-1.35-1.47l-1.85-2-.23-.27c-.83-1-2.57-3.09-4.47-2.07-1.26.68-1.53,2.32-.94,5.67.06.32.13.63.21.94v.17l.11.2a19.23,19.23,0,0,0,3.7,6.68,20.2,20.2,0,0,0,1.89,2.24l.14.15c1.4,1.62,2.89,3.26,4.43,4.85A49.4,49.4,0,0,0,82,27.81c1.73,1.2,3.57,2.33,5.35,3.42,1,.59,1.92,1.18,2.85,1.77,1.32,1,2.67,1.88,4,2.71l.21.15a36.84,36.84,0,0,1,3.33,2.89,15.56,15.56,0,0,1,4.69,10.08c-1.78.51-6.58,1.25-10.89,1.91-7.44,1.15-16.7,2.58-21.62,4.3-4,1.38-7.54,4.46-10.69,7.18-1.4,1.2-2.71,2.34-3.94,3.22a88.77,88.77,0,0,0-11.19,9.64c-3.66,3.71-7.68,7.27-11.94,11-6.22,5.52-12.66,11.23-18,17.51-6.46,7.65-10.59,14.11-13.4,21s2.87,11.16,4.73,12.59A90.11,90.11,0,0,0,18.37,145l3.25,1.75,1.68.93c3.85,2.16,7.83,4.39,12.81,4.59a94.44,94.44,0,0,0,14.88-1c2.06-.25,4-.48,5.95-.67,7-.65,14.08-1.54,20.93-2.41,4.56-.57,9.26-1.17,13.9-1.68,1.41-.16,2.85-.29,4.28-.41,5.17-.45,10.5-.92,15.48-2.95,3-1.25,6.23-3.68,9.6-6.25,9.38-7.14,16-11.32,22.27-4.62,5,5.35,7.7,14.3,10.08,22.2.46,1.54.91,3,1.35,4.42,3.24,10.17,6.09,20.52,8.73,30.26q1.17,4.32,2.32,8.65c1.67,6.26,3.4,12.73,5.22,19.08.3,1.07.59,2.2.89,3.36,1,4.12,2.24,8.79,4.64,12.31,2.93,4.27,12.27,6.6,23.09,9.29,13,3.24,27.71,6.91,32.73,14.3,4.83,7.13,7.9,16.68,8.89,27.63.2,2.27.28,4.61.36,6.87a75.78,75.78,0,0,0,1,11.85,51.69,51.69,0,0,0,4.3,11.78c.89,1.93,1.81,3.93,2.57,5.93Q254.31,332.62,259,345l.78,2.06c.12.34.44,1.07.87,2,4.73,10.84,5.5,14.42,5.26,15.47-4.71,4.05-4.76,11.57-4.76,11.89v1.56h18.76v-17.2c0-.6.91-1.64,1.64-2.48a10.54,10.54,0,0,0,2-2.93c1.69-4.39.65-9.22-.27-13.48a41.91,41.91,0,0,1-1-5.56,94.71,94.71,0,0,0-1.48-11.27c-.75-3.79-1.23-7.75-1.74-11.94-.79-6.47-1.6-13.16-3.5-19.36-1.17-3.82-.39-9,.3-13.58.2-1.32.39-2.6.53-3.78.79-6.92,1.85-13.93,2.9-20.77,4.09,2.32,13.39,4.44,30.55,7.25,2.29.37,4.09.67,4.85.83,15.94,3.52,34.7,6.91,53,5.29,22.08-2,43.92-7,62.38-11.74,6.68-1.7,13.45-3.5,20-5.25,3.79-1,7.57-2,11.36-3,1.41-.38,3.45-1.1,5.81-1.94,6-2.15,16.18-5.74,19.45-4.1,2.57,1.29,4.6,5,6.4,8.34a41,41,0,0,0,2.62,4.42c2.28,3.16,4.86,6.74,7.07,10.45,5.9,9.93,10.46,21.35,14.88,32.4,3.4,8.51,6.92,17.31,11.08,25.57,3.52,7,3.47,20.84,3.43,30,0,3.41,0,6.35.14,8.23a.62.62,0,0,1-.17.51c-1.87,1.79-6,8.32-4.9,13.82l.24,1.27H548v-16.4c2.76-2.07,12.61-10.3,12.35-22.48-.22-10.94,2.48-21.86,5.1-32.43,1.27-5.15,2.59-10.48,3.56-15.76,1.62-8.83,2.06-16.28,1.34-22.75a68.61,68.61,0,0,0-3.11-12.84,88,88,0,0,1-2.52-9.17,418.09,418.09,0,0,1-7.78-85.5c.06-4.45.22-8.06.5-11.35.77-9,4.86-24.21,13-29.43,3.24-2.07,6.76-2.37,10.76-.92,5.57,2,8.63,11.88,10.65,18.4.32,1,.61,1.95.88,2.79A253.81,253.81,0,0,1,600.84,172c5.51,28.46-2.77,96.57-3.82,100.56-.21.79-.42,1.55-.62,2.27-2.53,9.27-3.8,13.93,2.87,23.74.42.61,3.13,3.85,5.88,6.9,5.92,6.58,6.69,6.47,7.58,6.34a1.69,1.69,0,0,0,1.39-1.16c.83-2.53,3.82-25.84,1.53-32.74-1.38-4.14-3.69-4.66-5.37-5a2.74,2.74,0,0,1-2.58-2.24c-1.45-4.16,2.71-27.27,4.28-36,.37-2.06.66-3.66.8-4.57.27-1.7,1.48-6.53,3-12.66,3.21-12.9,8.07-32.39,9.3-43.25h0C626.9,158.37,617.56,108.63,591.21,84.13ZM622,173.84h0c-1.21,10.67-6,30-9.23,42.86-1.6,6.44-2.76,11.09-3,12.92-.14.9-.43,2.47-.79,4.5-3,16.94-5.67,33.22-4.16,37.55a5.73,5.73,0,0,0,4.84,4.26c1.37.31,2.28.52,3.1,3,1.71,5.15-.08,22.62-1.12,28.81a143.21,143.21,0,0,1-9.72-10.89c-5.86-8.63-4.93-12-2.44-21.17.2-.73.41-1.48.62-2.28,1.07-4.06,9.46-73.11,3.88-102a257.77,257.77,0,0,0-8.17-32.18c-.27-.82-.55-1.74-.86-2.73-2.2-7.12-5.54-17.87-12.56-20.41a14.64,14.64,0,0,0-13.51,1.22c-9.82,6.28-13.74,23.55-14.45,31.8-.28,3.36-.44,7-.51,11.56a421.56,421.56,0,0,0,7.84,86.15,91.48,91.48,0,0,0,2.6,9.51,64,64,0,0,1,3,12.25c.68,6.16.25,13.31-1.31,21.84-1,5.18-2.26,10.46-3.52,15.57-2.66,10.77-5.42,21.9-5.19,33.25.26,12.12-11.54,20.23-11.66,20.31l-.69,1.29h-1.32a12.7,12.7,0,0,0-8.44,3.21,3.77,3.77,0,0,0,.32-1.89c-.14-1.53-.15-4-.14-6.83a3.69,3.69,0,0,0,3.53,1.65l4.29-.55a3.66,3.66,0,0,0,.2-7.23l-3.19-54.72a3.66,3.66,0,0,0-2.4-6.74l-4.28.54a3.66,3.66,0,0,0,.37,7.3L537,350a3.72,3.72,0,0,0-1.67,1.38c0-9.64-.27-21.56-3.78-28.52-4.09-8.13-7.59-16.87-11-25.32-4.46-11.15-9.07-22.69-15.1-32.83-2.27-3.83-4.9-7.47-7.23-10.69a41.42,41.42,0,0,1-2.4-4.08c-2-3.71-4.3-7.91-7.74-9.64-4.12-2.07-12.35.57-21.89,3.95-2.3.82-4.28,1.52-5.56,1.86q-5.69,1.48-11.37,3c-6.54,1.74-13.3,3.54-20,5.24C411,259,389.33,264,367.47,266c-17.88,1.58-36.35-1.75-52.06-5.22-.84-.19-2.59-.48-5-.87-19.26-3.15-29.55-5.73-30.58-7.68a.52.52,0,0,1,0,.26l-3.09-.48h0l-.09.61c-1.19,7.69-2.41,15.64-3.32,23.52-.14,1.14-.32,2.38-.52,3.67-.73,4.9-1.57,10.46-.19,14.95,1.81,5.93,2.61,12.49,3.38,18.82.49,4.07,1,8.28,1.78,12.18a95.1,95.1,0,0,1,1.43,10.9,45.88,45.88,0,0,0,1,6c.87,4,1.76,8.18.41,11.7a9,9,0,0,1-1.48,2c-1.13,1.29-2.4,2.75-2.41,4.52h-1.31a12.68,12.68,0,0,0-6.6,1.86,35.75,35.75,0,0,0-1.89-6.36,3.65,3.65,0,0,0,3.43,1.21l4.25-.8a3.66,3.66,0,0,0-.54-7.26l-11.68-54.73a3.66,3.66,0,0,0-2.31-6.87l-4.25.79a3.66,3.66,0,0,0,.29,7.24l11.72,54.87a3.65,3.65,0,0,0-1.82,3.2c-.72-1.8-1.57-3.82-2.57-6.1-.4-.92-.69-1.59-.82-1.91l-.77-2.06q-4.68-12.42-9.37-24.83c-.8-2.11-1.74-4.16-2.66-6.14a48.59,48.59,0,0,1-4.07-11.06,73.21,73.21,0,0,1-1-11.37c-.08-2.3-.16-4.69-.38-7-1-11.47-4.29-21.53-9.41-29.1-5.69-8.38-21-12.2-34.56-15.57-9.77-2.44-19-4.74-21.26-8-2.1-3.06-3.17-7.25-4.2-11.31-.3-1.19-.6-2.36-.91-3.45-1.81-6.32-3.54-12.78-5.21-19-.77-2.89-1.54-5.77-2.32-8.66-2.65-9.77-5.5-20.16-8.77-30.39-.44-1.38-.88-2.85-1.33-4.36-2.48-8.23-5.28-17.56-10.79-23.45-8.67-9.26-18.53-1.75-26.44,4.28-3.21,2.44-6.24,4.75-8.89,5.84-4.54,1.86-9.64,2.3-14.57,2.73-1.46.13-2.92.25-4.36.42-4.66.51-9.37,1.11-13.94,1.69-6.82.86-13.88,1.75-20.83,2.4-2,.18-4,.43-6,.67a90.46,90.46,0,0,1-14.38,1C32,149,28.52,147,24.82,145l-1.7-1-3.28-1.76A87.47,87.47,0,0,1,7.4,134.71c-3.95-3-5.08-5.71-3.75-8.93,2.68-6.53,6.65-12.74,12.9-20.13,5.16-6.11,11.51-11.74,17.65-17.19,4.11-3.64,8.36-7.41,12.09-11.19A84.9,84.9,0,0,1,57.09,68c1.33-1,2.7-2.14,4.15-3.39,2.94-2.53,6.27-5.41,9.68-6.6,4.65-1.62,13.75-3,21.07-4.15,6.79-1,10.23-1.6,11.94-2.22a21.92,21.92,0,0,1-.63,3.66,15.47,15.47,0,0,1-.67,1.78c-.87.28-1.75.57-2.64.89-22.35,7.83-70.75,42.52-71.73,48.5-.82,5,3.45,3.67,6.61,3.61a1.14,1.14,0,0,1,1,.47,1.42,1.42,0,0,1-.15,1.24,23.61,23.61,0,0,1-4.35,5.71,52.38,52.38,0,0,0-4.61,5.78c-.52.73-2.55,3.13-2.06,4.17.71,1.52,5.09-.09,6.19-.37,2.81-.75,4.65-3.35,6.57-5.33,2.07-2.14,5.36-5.74,8.6-5.58,4.12.2,10.59,2.75,12.15,2.54s39.59-12.53,41.16-17c1.31-3.76,1.15-7.92,3.19-11.41a14.28,14.28,0,0,1,13.13-7c5.35.51,8.52,4.77,10.25,9.47A3.54,3.54,0,0,0,131,94.46c5.56-3.09,14.61-10.32,10.72-23.39-3.33-11.2-9.79-16.53-19.36-17.23.06-2-.73-4-1.19-5.83-.25-.95-.48-1.9-.72-2.86,3.76.71,10-3.22,12-4.58l.09-.07c4.3-3.35,9-6.24,10.86-6.74-.28,1.25-1,3.24-1.69,5.33C139,47,137.06,53.38,139.4,56.61a5.92,5.92,0,0,0,2.66,1.83c14.91,6.21,30.83,8.29,46.22,10.31l3.87.5c2.2.3,4.45.63,6.74,1,11.1,1.64,22.58,3.33,33.29,1.5a92.69,92.69,0,0,0,11.72-3.15c12.93-4,30.63-9.54,61.86-6.85,19.7,1.69,46.39,4.93,69.95,7.78,27.83,3.37,51.86,6.29,60.42,6.29,13.87,0,55.52-6.61,69.21-8.78,2.09-.34,3.52-.56,4.06-.64s53.47-4.33,79.68,20C614.67,110.21,623.74,158.48,622,173.84ZM100.2,79.62a10,10,0,1,1-10-10A10,10,0,0,1,100.2,79.62Z"/></g></g></svg>