<svg xmlns="http://www.w3.org/2000/svg" viewBox="0 0 138.46 83.44"><defs><style>.cls-1{fill:#1c0a33;}</style></defs><g id="Layer_2" data-name="Layer 2"><g id="Layer_1-2" data-name="Layer 1"><path class="cls-1" d="M138.41,38.38c.4-3.54-1.72-14.44-7.43-19.75s-17.11-4.69-18-4.56-12.72,2.1-16.25,2.1-19.6-2.33-29-3.13-13.43,1.71-16.46,2.23c-2.82.48-6-.18-8.8-.55-3.77-.5-7.52-.91-11.06-2.38A.92.92,0,0,1,31,12c-.65-.88.77-3.84,1-4.86.25-1.32-3,1.21-3,1.21s-2,1.34-2.58.9c-.05-.19-.11-.38-.17-.57a5.4,5.4,0,0,0-1.73-2.8l0,0,0,0-.17-.12-.12-.08a13.06,13.06,0,0,0-3.52-1.19,10,10,0,0,1-1.28-.41,6,6,0,0,1-1.63-.92,17.3,17.3,0,0,1-1.83-1.7,1.29,1.29,0,0,1-.19-.21c-.24-.25-.48-.52-.72-.78s-.42-.55-.62-.44-.06.75,0,.89a1.42,1.42,0,0,0,.05.22h0a3.79,3.79,0,0,0,.78,1.4,3.18,3.18,0,0,0,.39.46l0,0q.48.56,1,1.08A10.62,10.62,0,0,0,18.1,5.55c.59.41,1.21.77,1.82,1.15h0l.88.61h0a7.83,7.83,0,0,1,.81.7,3.8,3.8,0,0,1,1.15,2.53v0a.66.66,0,0,1,0,.14c0,.32-5.45.8-7.47,1.51-1.2.41-2.26,1.61-3.17,2.27a18.77,18.77,0,0,0-2.44,2.1c-2.05,2.08-4.69,4-6.64,6.34A17.3,17.3,0,0,0,.14,27.51c-.41,1,.13,1.77,1,2.39A26.81,26.81,0,0,0,4.63,32,7,7,0,0,0,7.7,33.19a35.35,35.35,0,0,0,4.59-.37c2.59-.24,5.16-.62,7.75-.91a15.63,15.63,0,0,0,4.3-.73c2.16-.88,5.05-4.92,7.48-2.33,1.39,1.49,2,4.14,2.62,6.06.71,2.23,1.33,4.48,2,6.74.55,2.06,1.09,4.12,1.67,6.17a11.89,11.89,0,0,0,1.19,3.39c1.31,1.92,10.29,2.12,12.42,5.25a13.44,13.44,0,0,1,2,6.31c.13,1.37,0,2.77.31,4.13a24.84,24.84,0,0,0,1.51,3.89q1.14,3,2.26,6c.17.44,1.79,3.85,1.29,4.26a3.52,3.52,0,0,0-1,2.41h3.48V80c0-.46.67-.9.84-1.33.5-1.3-.2-2.82-.3-4.09a20.6,20.6,0,0,0-.32-2.47c-.43-2.18-.48-4.71-1.16-6.93-.36-1.18,0-2.81.17-4,.21-1.79.49-3.58.76-5.36-.16,1.06,7.22,2,8.19,2.24a39.08,39.08,0,0,0,11.69,1.17,88,88,0,0,0,13.83-2.61c2.32-.59,4.64-1.22,7-1.83,1.19-.32,4.72-1.9,5.86-1.32,1,.49,1.55,2.13,2.14,3s1.1,1.53,1.59,2.35c2.33,3.93,3.66,8.69,5.79,12.92,1.11,2.22.69,7.11.83,8.63a.5.5,0,0,1-.15.4,3.79,3.79,0,0,0-1,2.76h3.93V80s2.81-1.89,2.75-4.82c-.08-3.68,1.28-7.22,1.93-10.79a17.48,17.48,0,0,0,.3-5c-.19-1.69-.92-3.21-1.25-4.87a92.69,92.69,0,0,1-1.74-19.1c0-.85,0-1.7.11-2.54.22-2.55,1.81-8.49,5.76-7.06,1.6.59,2.3,3.49,2.78,4.94a57.51,57.51,0,0,1,1.8,7.12c1.25,6.44-.64,21.72-.86,22.53-.65,2.44-1.05,3.29.46,5.5.16.24,2.58,3.09,2.69,2.78.19-.61.8-5.66.34-7.07S135,61.2,134.56,60s.92-8,1.11-9.19S138,41.92,138.41,38.38Z"/></g></g></svg>